<?xml version="1.0" standalone="no"?>
<!DOCTYPE svg PUBLIC "-//W3C//DTD SVG 20010904//EN"
 "http://www.w3.org/TR/2001/REC-SVG-20010904/DTD/svg10.dtd">
<svg version="1.0" xmlns="http://www.w3.org/2000/svg"
 width="1024pt" height="276.742" viewBox="0 0 300.000000 150.000000"
 preserveAspectRatio="xMidYMid meet">
<metadata>
Created by potrace 1.10, written by Peter Selinger 2001-2011
</metadata>
<g transform="translate(0.000000,150.000000) scale(0.100000,-0.100000)"
fill="#d81f26" stroke="none">
<path d="M501 1136 c-47 -16 -95 -55 -117 -98 -11 -21 -14 -78 -14 -255 0
-241 7 -293 43 -318 49 -34 202 -6 306 57 72 44 89 69 93 146 4 60 3 63 -16
58 -12 -3 -56 -6 -98 -6 l-77 0 -3 -77 c-3 -77 -3 -78 -30 -81 l-28 -3 0 229
c0 195 2 231 15 236 38 14 45 -2 45 -106 0 -87 2 -99 16 -94 9 3 52 6 97 6
l82 0 -5 98 c-6 118 -24 155 -92 190 -58 30 -155 38 -217 18z m197 -36 c66
-29 85 -63 90 -167 l4 -83 -71 1 -71 1 0 79 c0 68 -3 81 -22 99 -28 26 -50 25
-74 -1 -17 -19 -19 -41 -22 -233 -2 -224 3 -258 43 -263 11 -2 31 6 44 16 20
15 25 30 29 79 l4 60 59 7 c32 4 62 4 67 1 14 -8 7 -93 -8 -111 -37 -45 -211
-115 -283 -115 -89 1 -100 38 -95 333 3 199 5 219 24 244 59 79 172 100 282
53z"/>
<path d="M1364 1141 c-53 -14 -104 -51 -125 -92 -16 -33 -20 -65 -24 -187 -2
-81 -1 -167 3 -192 6 -41 10 -46 47 -58 59 -20 324 -11 359 12 l26 16 0 180
c0 102 -5 191 -11 207 -13 35 -55 80 -92 99 -33 18 -140 26 -183 15z m161 -33
c41 -15 74 -46 91 -87 16 -39 20 -346 5 -370 -6 -10 -32 -16 -73 -19 l-63 -4
0 197 c0 183 -1 198 -19 211 -31 22 -54 17 -71 -17 -14 -25 -16 -62 -13 -214
l3 -183 -60 5 c-38 3 -64 11 -72 21 -9 11 -13 65 -13 187 0 162 1 174 23 205
32 48 71 73 125 80 53 7 92 4 137 -12z m-67 -276 l2 -192 -25 0 c-18 0 -26 7
-31 24 -8 35 -1 339 9 354 5 7 16 12 25 10 15 -3 17 -26 20 -196z"/>
<path d="M973 1132 l-93 -3 0 -291 0 -290 33 5 c17 3 87 14 155 23 l122 18 0
28 0 28 -60 -7 -60 -6 -2 249 -3 249 -92 -3z m77 -258 c0 -193 3 -235 15 -248
8 -8 15 -17 15 -20 0 -2 -26 -8 -57 -11 -32 -4 -69 -8 -83 -11 -24 -3 -40 9
-40 34 0 7 5 10 11 6 8 -4 8 -1 2 12 -4 11 -6 87 -3 169 3 83 3 176 0 208 -8
90 -3 97 75 95 l65 -2 0 -232z"/>
<path d="M1990 983 c0 -95 4 -153 10 -153 10 0 12 34 11 188 l0 93 57 -3 57
-3 2 -40 c1 -22 -1 -145 -4 -273 -5 -207 -8 -232 -22 -227 -9 3 -30 6 -46 8
-53 6 -70 23 -113 111 -58 118 -82 115 -82 -10 l0 -65 -52 3 -53 3 -3 248 -2
247 59 0 59 0 31 -96 c17 -53 28 -101 24 -107 -3 -5 -2 -7 4 -4 5 4 16 -12 23
-33 7 -22 20 -46 29 -53 12 -10 14 -9 9 3 -3 8 -27 81 -54 163 l-48 147 -84 0
-84 0 4 -265 c3 -146 7 -267 9 -269 2 -2 38 -7 80 -10 l75 -7 -3 93 -2 93 16
-40 c10 -22 32 -67 49 -100 34 -65 33 -64 168 -89 l36 -7 0 303 0 303 -80 0
-80 0 0 -152z"/>
<path d="M2376 1133 l-158 -4 6 -311 6 -312 48 -12 c26 -7 95 -28 154 -48 59
-20 109 -36 112 -36 4 0 6 31 6 69 l0 70 -57 11 c-32 6 -64 13 -70 15 -9 3
-13 27 -13 74 l0 69 63 -5 62 -5 0 71 0 71 -62 0 -63 0 0 70 0 70 65 0 65 0 0
75 c0 41 -1 74 -2 73 -2 -1 -74 -4 -162 -5z m135 -35 c1 -7 3 -29 4 -48 l2
-35 -51 -3 c-28 -2 -56 -8 -63 -14 -17 -14 -18 -142 0 -156 7 -6 33 -12 57
-14 l45 -3 3 -42 3 -43 -48 0 c-27 0 -54 -5 -61 -12 -16 -16 -16 -152 1 -166
6 -5 38 -15 70 -22 l57 -13 0 -44 c0 -41 -2 -44 -22 -37 -13 3 -75 23 -138 44
l-115 38 -3 291 -2 291 130 0 c97 0 130 -3 131 -12z"/>
</g>
</svg>
